<?xml version="1.0" encoding="UTF-8"?>
<svg xmlns="http://www.w3.org/2000/svg" viewBox="0 0 448.92 73.86" style="fill:#0B1F3F;">
  <defs>
    <style>
      .cls-1{fill:none;stroke:#0B1F3F;stroke-miterlimit:10;}
      .cls-2{fill-rule:evenodd;}
    </style>
  </defs>
  <path d="m281.96,24.85c-5.4-5.4-12.57-8.38-20.18-8.38s-14.78,2.98-20.34,8.38c-4.75,4.75-7.68,11.01-8.27,17.64l-.03.34h46.42l-.54-.54-15.85-15.85-.22-.22-.22.22-3.11,3.11-.22.22.22.22,3.1,3.15,2.98,3.02,1.06,1.07.53.54h-28.04l.17-.43.33-.86c1.12-2.89,3-5.74,5.31-8.05,4.46-4.46,10.4-6.91,16.73-6.91s12.27,2.46,16.73,6.91c4.46,4.63,6.91,10.57,6.91,16.73,0,.39-.04.77-.07,1.13v.12s-.02.07-.02.07c-.04.35-.07.67-.07.99v.95h-.95c-2.01,0-3.6-.44-4.76-.76-.24-.07-.48-.13-.69-.19l-.06-.02-.18-.05-.29-.08h-.04c-1.05-.32-2.48-.75-4.32-.75-2.03,0-3.54.46-4.54.76-.16.05-.31.09-.45.13l-.36.1h-.04c-1.16.35-2.91.86-4.96.86-2.31,0-3.98-.5-5.08-.84l-.2-.06c-.08-.02-.15-.05-.22-.07l-.35-.1c-1.07-.31-2.69-.79-4.64-.79s-3.57.47-4.64.79l-.35.1-.34.1c-1.1.32-2.94.86-5.17.86s-4.06-.54-5.17-.86l-.33-.1-.36-.1c-.83-.24-1.96-.57-3.3-.72l-.38-.04.03.38c.58,7.24,3.46,13.64,8.32,18.51,5.54,5.4,12.76,8.37,20.33,8.37s14.78-2.97,20.17-8.37c2.37-2.36,4.14-4.74,5.42-7.26l.28-.56-.62.11c-.88.15-1.8.23-2.72.23-2.01,0-3.6-.44-4.76-.76-.24-.07-.47-.13-.69-.19l-.08-.02c-.09-.02-.19-.05-.3-.09l-.15-.05h-.04c-1.05-.32-2.48-.75-4.32-.75-2.03,0-3.54.46-4.54.76-.16.05-.31.09-.45.13l-.36.11c-1.17.34-2.93.86-5,.86-2.3,0-3.97-.5-5.08-.84l-.2-.06c-.08-.02-.15-.05-.22-.07l-.35-.1c-1.07-.31-2.69-.79-4.64-.79s-3.57.47-4.64.79l-.35.1h-.01s-.04.01-.04.01c-.26.05-.55.15-.89.26l-.06.02s-.04.01-.06.02l-.5.13.34.39c1.07,1.22,2.36,2.4,3.85,3.5l.11.08.14-.03c.57-.11,1.27-.22,2.11-.22,2.23,0,4.08.54,5.18.86l.34.1c.08.02.17.05.26.08l.19.06c1.07.32,2.54.75,4.54.75,1.82,0,3.48-.49,4.47-.78l.37-.11.1-.03c.11-.03.23-.06.35-.1,1.12-.33,2.79-.83,5.07-.83,1.29,0,2.39.26,2.7.34l1.16.29.58.15-.45.4-.9.8c-4.14,3.64-9.57,5.64-15.29,5.64-6.33,0-12.27-2.46-16.73-6.91-2-2-3.63-4.36-4.98-7.22l-.56-1.2-.28-.6.64.16,1.29.32c.51.12.87.12,1.47.12,1.95,0,3.57-.47,4.64-.79l.35-.1.33-.09c1.1-.32,2.95-.87,5.17-.87s4.07.54,5.17.86l.35.1c.07.02.16.05.25.08l.19.06c1.07.32,2.53.75,4.54.75,1.82,0,3.48-.49,4.47-.78l.37-.11.24-.07.19-.05c1.11-.33,2.8-.83,5.08-.83,2.14,0,3.8.5,4.9.83.15.05.3.09.44.13h.02s.02.01.02.01h.04c.8.28,1.81.57,3.12.73h.02s.02,0,.02,0c.3,0,.6.03.96.09h.05c.27.04.53.07.76.07,2,0,3.45-.43,4.51-.74h.03s.27-.09.27-.09l.19-.06.06-.02.18-.05.04-.19c.59-2.69.87-5.04.87-7.17,0-7.76-3.02-14.98-8.51-20.32Z"/>
  <path class="cls-2" d="m302.13,24.63c0-2.4-1.2-4.95-7.8-4.95v-1.5h21.76c12.6,0,22.36,3.3,22.36,13.65,0,6.9-4.5,10.35-10.8,11.7v.15c6.9,1.35,13.5,5.7,13.5,13.51,0,9.75-8.4,14.71-21.16,14.71h-25.66v-1.5c6.6,0,7.8-2.55,7.8-4.95V24.63h0Zm8.4,39.91c0,2.85.6,4.35,6.6,4.35,8.4,0,14.71-2.55,14.71-12s-9.6-11.4-17.26-11.4h-4.05v19.06h0Zm6.6-22.36c8.25,0,13.05-3.45,13.05-10.05,0-6.15-3.9-9.6-9.6-10.65-7.5-.45-10.05-.6-10.05,2.25v18.46h6.6Z"/>
  <path class="cls-2" d="m346.19,71.89v-1.5c6,0,7.2-2.55,7.2-4.95V24.63c0-2.4-1.2-4.95-7.2-4.95v-1.5h21.01c20.71,0,33.31,8.7,33.31,27.01,0,16.51-11.1,26.71-32.71,26.71h-21.61Zm15.46-7.35c0,3,2.1,3.9,3.9,4.05,16.51.75,25.96-8.25,25.96-23.41,0-15.91-10.35-24.01-25.21-24.01-3.9,0-4.65.15-4.65,4.05v39.31h0Z"/>
  <path class="cls-2" d="m412.91,24.63c0-2.4-1.35-4.95-6.75-4.95v-1.5h20.41c12.6,0,22.36,5.7,22.36,15.31,0,12-10.35,17.41-20.71,17.41-2.4,0-4.65-.15-7.05-.3v14.86c0,2.4,1.2,4.95,7.05,4.95v1.5h-22.51v-1.5c5.85,0,7.2-2.55,7.2-4.95V24.63h0Zm8.25,22.96c1.2,0,2.7.15,3.9.15,8.85,0,14.86-4.2,14.86-13.65s-7.35-12.9-15.16-12.9c-3.45,0-3.6.3-3.6,3.75v22.66h0Z"/>
  <line class="cls-1" x1="212.92" y1="72.7" x2="212.92" y2="19.03"/>
  <path d="m60.62,31.62c1.39.57,2.41,1.15,2.98,1.67,5.53,5.04.57,9.2.57,9.2,5.25-1.01,10.51-4.13,10.42-10.49-.07-5.36-7.59-13.8-21.27-15.7C45.6,4.18,37.66.02,31.51,0h-.1c-1.96,0-3.73.43-5.26,1.16-4.76,2.25-7.6,7.89-6.77,17.12,0,0,2.63-9.35,11.97-6.96,2.87.74,6.23,2.46,9.58,5.05-4.01.55-8.35,1.62-12.99,3.34-4.18,1.54-7.76,3.55-10.83,5.81-.61-3.98-.9-8.25-.78-12.78,0,0-3.02,6.29-3.15,16.04C2.68,38.6,0,50.77,0,50.77c3.95-6.18,8.66-10.78,13.7-14.13.48,3.25,1.32,6.74,2.66,10.38-8.65,6.9-11.82,17.52-11.82,17.52,4.15-6.19,8.88-10.39,13.64-13.14.19.41.39.83.6,1.24,9.54,19.23,21.19,21.06,27.97,18.75,6.35-2.16,9.26-9.1,8.94-17.59,0,0-1.44,6.17-6.64,8.18-6.29,2.44-16.24-2.66-23.52-13.77,9.65-2.88,18.19-.65,20.67,1.88,3.42,3.5.37,6.02.37,6.02,3.43-.66,7.44-3.01,6.79-7.97-.62-4.75-12.73-12.91-30.7-4.92-1.46-2.9-2.74-6.1-3.76-9.59,11.59-5.68,24.15-5.84,33.08-4.35,4.9,8.69,7.52,20.14,4.31,33.65,0,0,10.09-12.04,4.32-31.34Z"/>
  <path d="m141.93,47.34c-.4-.51-.86-1-1.36-1.47-1.95-2.08-4.8-3.89-8.49-5.38l-5.12-2.1c-1.51-.62-2.71-1.33-3.59-2.11-.83-.95-1.26-1.99-1.26-3.14,0-1.75.69-3.22,2.06-4.37,1.37-1.18,3.13-1.78,5.22-1.78,1.7,0,3.11.35,4.18,1.04.25.14.5.33.76.56.62.69,1.26,1.61,1.92,2.74l.09.15.41.78.31-.19,6.56-3.89-.11-.18c-1.06-1.82-2.25-3.36-3.58-4.62-2.99-3.13-6.7-4.71-11.09-4.71s-8.18,1.34-11.15,3.98c-2.98,2.62-4.5,5.93-4.5,9.83,0,3.52,1.33,6.55,3.98,9.05,1.76,1.87,4.2,3.47,7.31,4.78l4.95,2.06c1.27.55,2.38,1.13,3.3,1.73.54.35,1.02.72,1.45,1.11.06.07.12.13.17.2.57.67.99,1.42,1.26,2.22.27.81.4,1.71.4,2.67,0,2.41-.79,4.43-2.33,6-1.55,1.57-3.52,2.36-5.87,2.36s-4.21-.66-5.67-1.96c-.19-.21-.37-.43-.54-.67-.86-1.12-1.47-3.19-1.82-6.15l-.03-.23h0s0,0,0,0l-.08-.74-.74.17h0s-8.06,1.78-8.06,1.78l.03.2c.71,4.77,2.5,8.54,5.34,11.2.23.24.46.47.7.69,2.93,2.68,6.7,4.03,11.19,4.03,4.74,0,8.76-1.59,11.96-4.72,3.18-3.11,4.79-7.11,4.79-11.87,0-3.56-.99-6.61-2.94-9.07Z"/>
  <path d="m194.65,72.07l-25.27-54.18-26.25,54.18h9.74s5.72-12.48,5.72-12.48h21.37l5.37,12.48h9.32Zm-32.33-20.8l7.18-14.88,6.85,14.88h-14.03Z"/>
  <path d="m105.62,24.48c-.14-.15-.29-.3-.44-.45-1.7-1.68-3.7-2.84-5.95-3.45-2.2-.6-5.5-.91-9.8-.91h-8.99v52.4h8.79v-20.86h3.38c5.37,0,9.71-1.41,12.88-4.18,3.18-2.78,4.8-6.59,4.8-11.34,0-4.43-1.51-8.15-4.49-11.06-.06-.05-.11-.1-.17-.16Zm-14.33,18.51h-2.07v-15.13h2.35c3.98,0,6.84.76,8.61,2.3,1.05,1.22,1.58,2.82,1.58,4.82,0,5.39-3.42,8-10.47,8Z"/>
</svg>
